<svg xmlns="http://www.w3.org/2000/svg" viewBox="3.75859 -106.671 191 121">
	<path d="M 4.3 -0.5 C 18.8 -22.9 34.3 -51.5 47.4 -82.8 C 56.2 -101.4 49.9 -103.3 42.5 -86.4 C 31.3 -54.3 18 -25.3 4.3 -0.5 Z M 10.929 -41.708 C 68.163 -7.871 104.211 -18.164 117.562 -21.607 C 86.791 -13.193 38.391 -30.102 14.159 -44.961 C 10.444 -47.798 12.653 -48.371 16.202 -49.706 C 61.838 -68.089 106.266 -93.298 112.162 -100.895 C 118.6 -110.343 113.224 -106.781 103.892 -100.312 C 75.637 -81.84 44.876 -68.534 11.584 -54.011 C 4.113 -50.639 -0.972 -48.101 10.508 -41.995 Z M 82.86 -51.407 C 80.577 -49.325 69.779 -37.208 76.545 -33.953 C 80.743 -31.888 85.564 -39.681 90.783 -41.831 C 87.479 -29.033 97.66 -38.322 103.166 -42.118 C 107.149 -28.19 118.494 -40.381 124.141 -50.273 C 125.995 -54.394 123.77 -56.743 121.845 -52.409 C 119.36 -46.522 114.167 -39.969 108.647 -40.217 C 106.583 -39.804 107.737 -46.77 108.644 -49.449 C 109.551 -50.85 106.336 -55.796 104.976 -50.067 C 102.215 -43.39 99.453 -42.236 94.879 -38.609 C 89.603 -35.353 95.332 -44.75 96.902 -47.599 C 100.319 -52.334 96.775 -55.095 93.882 -50.284 C 92.018 -56.012 85.853 -54.147 82.858 -51.401 Z M 79.197 -41.379 C 80.301 -43.311 82.991 -47.186 85.027 -49.359 C 87.2 -51.881 94.437 -50.198 90.117 -45.454 C 87.959 -43.402 86.561 -41.822 84.335 -40.163 C 80.676 -36.767 77.461 -36.478 79.197 -41.379 Z M 132.241 -57.409 C 129.797 -53.468 127.906 -49.142 127.999 -46.611 C 128.803 -42.797 130.654 -43.029 133.217 -44.611 C 136.999 -47.272 136.102 -46.535 138.641 -49.11 C 143.303 -54.904 142.319 -51.118 141.357 -47.625 C 134.444 -24.408 124.708 -7.39 112.266 8.713 C 110.232 10.794 107.73 9.762 107.946 7.314 C 107.47 0.998 137.737 -28.63 158.422 -43.467 C 162.589 -46.052 163.307 -46.853 163.093 -45.296 C 160.941 -38.361 166.56 -37.887 168.283 -39.51 C 170.525 -41.013 171.754 -41.782 173.702 -44.229 C 176.423 -48.524 177.642 -46.331 177.215 -42.946 C 177.183 -40.351 178.116 -37.991 181.562 -39.864 C 186.637 -43.651 188.719 -44.388 193.43 -50.637 C 195.417 -53.201 195.152 -54.481 192.875 -51.678 C 189.649 -47.176 187.504 -45.724 181.766 -41.601 C 179.661 -40.722 178.688 -41.754 179.509 -45.336 C 180.378 -50.369 181.253 -49.921 182.596 -52.646 C 183.413 -54.222 181.448 -56.732 179.833 -53.521 C 179.288 -52.412 177.676 -50.336 178.927 -54.826 C 179.664 -56.973 174.056 -58.126 171.429 -55.819 C 162.151 -46.979 155.764 -44.234 144.363 -34.311 C 131.854 -23.228 123.779 -19.428 105.729 3.531 C 99.659 16.99 110.901 16.409 116.635 9.719 C 122.118 2.33 124.105 -1.067 127.309 -8.021 C 134.0443 -22.4953 140.0707 -37.8587 146.097 -53.222 C 147.549 -56.352 147.229 -66.862 140.852 -56.57 C 139.371 -54.354 138.473 -53.233 136.045 -51 C 132.232 -47.187 130.726 -47.604 133.487 -52.998 C 134.155 -54.173 134.507 -54.782 135.495 -56.123 C 138.922 -60.09 133.955 -60.411 132.257 -57.431 Z M 170.407 -52.6 C 173.057 -55.047 178.389 -54.59 176.178 -50.232 C 174.608 -47.86 172.628 -45.328 171.254 -43.53 C 167.808 -40.084 162.165 -38.161 165.774 -46.625 C 167.188 -48.758 168.378 -50.81 170.422 -52.631 Z Z" stroke="#ff6600" stroke-width="0.1" fill="#ff6600"/>
</svg>